<?xml version="1.0" encoding="UTF-8"?>
<svg id="a" data-name="Layer 2" xmlns="http://www.w3.org/2000/svg" viewBox="0 0 275.54 94.81">
  <g>
    <circle cx="47.41" cy="47.41" r="46.43" fill="none" stroke="#fff" stroke-miterlimit="10" stroke-width="1.95"/>
    <circle cx="47.41" cy="47.41" r="31.24" fill="none" stroke="#fff" stroke-miterlimit="10"/>
    <g>
      <path d="M22.4,72.78c-.62-.61-1.33-.87-2.12-.78-.79.09-1.56.53-2.33,1.3-.8.81-1.23,1.6-1.29,2.35-.07.75.23,1.45.88,2.09.28.28.58.51.9.72.32.2.66.4,1.03.59l-.91.93c-.71-.31-1.4-.79-2.06-1.44-.97-.95-1.43-1.98-1.37-3.07.06-1.1.62-2.19,1.69-3.29.68-.69,1.39-1.17,2.15-1.44.76-.27,1.51-.31,2.26-.11.75.19,1.44.61,2.09,1.24.68.66,1.16,1.42,1.46,2.27l-1.27.52c-.12-.33-.27-.65-.44-.97-.17-.32-.39-.62-.67-.89Z" fill="#fff" stroke-width="0"/>
      <path d="M30.72,82.66c-.77,1.3-1.69,2.12-2.76,2.46-1.08.34-2.21.16-3.4-.54-1.21-.71-1.92-1.61-2.15-2.71-.23-1.1.05-2.31.83-3.63.78-1.32,1.7-2.14,2.77-2.47,1.07-.33,2.2-.13,3.41.58,1.19.7,1.9,1.6,2.12,2.7.23,1.1-.04,2.3-.81,3.61ZM24.61,79.06c-.58.98-.82,1.85-.72,2.59.1.74.54,1.34,1.32,1.8.78.46,1.51.55,2.2.28.69-.27,1.33-.9,1.92-1.9.58-.98.82-1.84.73-2.58-.09-.74-.53-1.33-1.31-1.79-.78-.46-1.52-.56-2.22-.28-.7.27-1.33.9-1.91,1.88Z" fill="#fff" stroke-width="0"/>
      <path d="M35.98,89.18l-.8-8.17h-.05c-.2,1.12-.42,2.18-.65,3.16l-1.06,4.39-1.34-.32,2.17-9.02,2.08.5.78,7.78h.04s4.31-6.55,4.31-6.55l2.09.5-2.17,9.02-1.42-.34,1.07-4.46c.11-.45.26-1.03.46-1.74s.32-1.15.37-1.29h-.05s-4.52,6.86-4.52,6.86l-1.3-.31Z" fill="#fff" stroke-width="0"/>
      <path d="M51.64,84.01c.03.97-.27,1.72-.89,2.25-.62.53-1.52.82-2.69.85l-.96.03.1,3.47-1.52.04-.26-9.28,2.67-.07c1.16-.03,2.03.18,2.62.64.59.46.9,1.15.92,2.07ZM47.06,85.86l.81-.02c.78-.02,1.35-.17,1.7-.45.36-.28.53-.71.51-1.28-.01-.53-.19-.93-.52-1.18-.33-.25-.84-.37-1.53-.35l-1.05.03.09,3.26Z" fill="#fff" stroke-width="0"/>
      <path d="M60.78,88.57l-1.53-2.27-3.44.87-.25,2.72-1.55.39,1.08-9.89,1.6-.4,5.65,8.18-1.56.4ZM58.54,85.13l-1.46-2.24c-.1-.15-.25-.38-.45-.71-.2-.33-.34-.56-.42-.72.02.53,0,1.12-.07,1.78l-.22,2.55,2.62-.66Z" fill="#fff" stroke-width="0"/>
      <path d="M71.91,83.33l-1.63.89-7.55-4.31-.04.02.23.35c.43.66.8,1.28,1.11,1.85l2.31,4.24-1.21.66-4.44-8.15,1.62-.88,7.52,4.28.03-.02c-.05-.08-.24-.38-.55-.91-.31-.53-.55-.94-.72-1.24l-2.33-4.27,1.22-.67,4.44,8.15Z" fill="#fff" stroke-width="0"/>
      <path d="M73.74,75.31l-1.22-4.61,1.22-1.11,1.52,6.29,2.42,2.67-1.13,1.02-2.38-2.63-6.13-2.18,1.22-1.11,4.47,1.66Z" fill="#fff" stroke-width="0"/>
    </g>
    <g>
      <path d="M19.32,16.31c-.67.59-1.01,1.26-1.01,2.02,0,.76.32,1.52.98,2.28.69.79,1.4,1.23,2.12,1.31.72.08,1.43-.18,2.13-.79.3-.26.57-.55.8-.85.23-.3.47-.63.7-.98l.79.9c-.39.68-.94,1.33-1.65,1.95-1.04.91-2.09,1.33-3.15,1.24-1.06-.08-2.05-.65-2.99-1.72-.59-.67-.96-1.37-1.13-2.11-.17-.74-.12-1.47.16-2.18.28-.72.76-1.38,1.45-1.98.73-.64,1.52-1.09,2.38-1.35l.35,1.24c-.33.11-.66.24-1,.4-.34.16-.65.36-.95.62Z" fill="#fff" stroke-width="0"/>
      <path d="M32.07,16.98l-4.68,2.58-4.14-7.5,4.68-2.59.57,1.04-3.33,1.84,1.13,2.04,3.12-1.72.57,1.03-3.12,1.72,1.3,2.35,3.33-1.84.57,1.04Z" fill="#fff" stroke-width="0"/>
      <path d="M34.08,12.61l1,3.27-1.48.45-2.5-8.19,2.55-.78c1.17-.36,2.09-.42,2.77-.2.68.23,1.15.74,1.39,1.54.31,1.02-.05,1.92-1.09,2.72l3.66,2.84-1.68.51-3.16-2.61-1.46.45ZM33.74,11.5l1.03-.31c.69-.21,1.15-.48,1.39-.8.24-.33.29-.72.15-1.17-.14-.46-.41-.74-.81-.84s-.93-.05-1.6.16l-.98.3.82,2.68Z" fill="#fff" stroke-width="0"/>
      <path d="M44.62,13.92l-1.54.15-.7-7.33-2.77.26-.11-1.19,7.07-.68.11,1.2-2.77.26.7,7.33Z" fill="#fff" stroke-width="0"/>
      <path d="M48.56,13.83l.4-8.56,1.54.07-.4,8.56-1.54-.07Z" fill="#fff" stroke-width="0"/>
      <path d="M53.85,14.34l-1.51-.29,1.59-8.42,5.24.99-.22,1.16-3.74-.71-.5,2.63,3.5.66-.22,1.17-3.5-.66-.65,3.45Z" fill="#fff" stroke-width="0"/>
      <path d="M58.93,15.57l2.77-8.1,1.46.5-2.77,8.1-1.46-.5Z" fill="#fff" stroke-width="0"/>
      <path d="M67.2,19.29l-4.74-2.47,3.96-7.6,4.74,2.47-.55,1.05-3.37-1.76-1.08,2.07,3.16,1.65-.54,1.04-3.16-1.65-1.24,2.39,3.37,1.76-.55,1.05Z" fill="#fff" stroke-width="0"/>
      <path d="M77.23,21.85c-.93,1.07-1.96,1.6-3.11,1.59-1.14,0-2.33-.54-3.56-1.61l-2-1.74,5.62-6.46,2.21,1.92c1.13.99,1.78,2.03,1.93,3.14.15,1.1-.21,2.16-1.09,3.16ZM75.97,20.82c1.35-1.55,1.22-3.02-.38-4.4l-1.01-.88-4.08,4.69.83.72c1.72,1.49,3.26,1.45,4.64-.13Z" fill="#fff" stroke-width="0"/>
    </g>
    <path d="M28.58,55.23c.11.24.17.5.17.78,0,.3-.13.56-.38.78-.26.22-.57.33-.94.33-.39,0-.67-.11-.86-.33-.19-.23-.29-.53-.29-.92,0-.45.1-.8.31-1.05.2-.25.49-.38.87-.38.25,0,.48.08.67.22.19.14.35.33.45.57Z" fill="#fff" stroke-width="0"/>
    <path d="M33.95,55.05c-.2-.41-.51-.61-.93-.61s-.73.2-.92.6c-.19.4-.29,1.07-.29,2.01s.1,1.6.29,2,.5.6.92.6.73-.2.93-.61c.19-.4.29-1.07.29-1.99s-.1-1.59-.29-2ZM33.95,55.05c-.2-.41-.51-.61-.93-.61s-.73.2-.92.6c-.19.4-.29,1.07-.29,2.01s.1,1.6.29,2,.5.6.92.6.73-.2.93-.61c.19-.4.29-1.07.29-1.99s-.1-1.59-.29-2ZM33.95,55.05c-.2-.41-.51-.61-.93-.61s-.73.2-.92.6c-.19.4-.29,1.07-.29,2.01s.1,1.6.29,2,.5.6.92.6.73-.2.93-.61c.19-.4.29-1.07.29-1.99s-.1-1.59-.29-2ZM39.43,55.05c-.19-.41-.5-.61-.92-.61s-.73.2-.93.6c-.19.4-.28,1.07-.28,2.01s.09,1.6.28,2c.2.4.5.6.93.6s.73-.2.92-.61c.2-.4.3-1.07.3-1.99s-.1-1.59-.3-2ZM39.43,55.05c-.19-.41-.5-.61-.92-.61s-.73.2-.93.6c-.19.4-.28,1.07-.28,2.01s.09,1.6.28,2c.2.4.5.6.93.6s.73-.2.92-.61c.2-.4.3-1.07.3-1.99s-.1-1.59-.3-2ZM33.95,55.05c-.2-.41-.51-.61-.93-.61s-.73.2-.92.6c-.19.4-.29,1.07-.29,2.01s.1,1.6.29,2,.5.6.92.6.73-.2.93-.61c.19-.4.29-1.07.29-1.99s-.1-1.59-.29-2ZM33.95,55.05c-.2-.41-.51-.61-.93-.61s-.73.2-.92.6c-.19.4-.29,1.07-.29,2.01s.1,1.6.29,2,.5.6.92.6.73-.2.93-.61c.19-.4.29-1.07.29-1.99s-.1-1.59-.29-2ZM39.43,55.05c-.19-.41-.5-.61-.92-.61s-.73.2-.93.6c-.19.4-.28,1.07-.28,2.01s.09,1.6.28,2c.2.4.5.6.93.6s.73-.2.92-.61c.2-.4.3-1.07.3-1.99s-.1-1.59-.3-2ZM39.43,55.05c-.19-.41-.5-.61-.92-.61s-.73.2-.93.6c-.19.4-.28,1.07-.28,2.01s.09,1.6.28,2c.2.4.5.6.93.6s.73-.2.92-.61c.2-.4.3-1.07.3-1.99s-.1-1.59-.3-2ZM33.95,55.05c-.2-.41-.51-.61-.93-.61s-.73.2-.92.6c-.19.4-.29,1.07-.29,2.01s.1,1.6.29,2,.5.6.92.6.73-.2.93-.61c.19-.4.29-1.07.29-1.99s-.1-1.59-.29-2ZM33.95,55.05c-.2-.41-.51-.61-.93-.61s-.73.2-.92.6c-.19.4-.29,1.07-.29,2.01s.1,1.6.29,2,.5.6.92.6.73-.2.93-.61c.19-.4.29-1.07.29-1.99s-.1-1.59-.29-2ZM39.43,55.05c-.19-.41-.5-.61-.92-.61s-.73.2-.93.6c-.19.4-.28,1.07-.28,2.01s.09,1.6.28,2c.2.4.5.6.93.6s.73-.2.92-.61c.2-.4.3-1.07.3-1.99s-.1-1.59-.3-2ZM39.43,55.05c-.19-.41-.5-.61-.92-.61s-.73.2-.93.6c-.19.4-.28,1.07-.28,2.01s.09,1.6.28,2c.2.4.5.6.93.6s.73-.2.92-.61c.2-.4.3-1.07.3-1.99s-.1-1.59-.3-2ZM33.95,55.05c-.2-.41-.51-.61-.93-.61s-.73.2-.92.6c-.19.4-.29,1.07-.29,2.01s.1,1.6.29,2,.5.6.92.6.73-.2.93-.61c.19-.4.29-1.07.29-1.99s-.1-1.59-.29-2ZM33.95,55.05c-.2-.41-.51-.61-.93-.61s-.73.2-.92.6c-.19.4-.29,1.07-.29,2.01s.1,1.6.29,2,.5.6.92.6.73-.2.93-.61c.19-.4.29-1.07.29-1.99s-.1-1.59-.29-2ZM39.43,55.05c-.19-.41-.5-.61-.92-.61s-.73.2-.93.6c-.19.4-.28,1.07-.28,2.01s.09,1.6.28,2c.2.4.5.6.93.6s.73-.2.92-.61c.2-.4.3-1.07.3-1.99s-.1-1.59-.3-2ZM58.53,55.05c-.19-.41-.5-.61-.92-.61s-.73.2-.93.6c-.19.4-.29,1.07-.29,2.01s.1,1.6.29,2c.2.4.5.6.93.6s.73-.2.92-.61c.2-.4.3-1.07.3-1.99s-.1-1.59-.3-2ZM58.53,55.05c-.19-.41-.5-.61-.92-.61s-.73.2-.93.6c-.19.4-.29,1.07-.29,2.01s.1,1.6.29,2c.2.4.5.6.93.6s.73-.2.92-.61c.2-.4.3-1.07.3-1.99s-.1-1.59-.3-2ZM39.43,55.05c-.19-.41-.5-.61-.92-.61s-.73.2-.93.6c-.19.4-.28,1.07-.28,2.01s.09,1.6.28,2c.2.4.5.6.93.6s.73-.2.92-.61c.2-.4.3-1.07.3-1.99s-.1-1.59-.3-2ZM33.95,55.05c-.2-.41-.51-.61-.93-.61s-.73.2-.92.6c-.19.4-.29,1.07-.29,2.01s.1,1.6.29,2,.5.6.92.6.73-.2.93-.61c.19-.4.29-1.07.29-1.99s-.1-1.59-.29-2ZM33.95,55.05c-.2-.41-.51-.61-.93-.61s-.73.2-.92.6c-.19.4-.29,1.07-.29,2.01s.1,1.6.29,2,.5.6.92.6.73-.2.93-.61c.19-.4.29-1.07.29-1.99s-.1-1.59-.29-2ZM39.43,55.05c-.19-.41-.5-.61-.92-.61s-.73.2-.93.6c-.19.4-.28,1.07-.28,2.01s.09,1.6.28,2c.2.4.5.6.93.6s.73-.2.92-.61c.2-.4.3-1.07.3-1.99s-.1-1.59-.3-2ZM58.53,55.05c-.19-.41-.5-.61-.92-.61s-.73.2-.93.6c-.19.4-.29,1.07-.29,2.01s.1,1.6.29,2c.2.4.5.6.93.6s.73-.2.92-.61c.2-.4.3-1.07.3-1.99s-.1-1.59-.3-2ZM58.53,55.05c-.19-.41-.5-.61-.92-.61s-.73.2-.93.6c-.19.4-.29,1.07-.29,2.01s.1,1.6.29,2c.2.4.5.6.93.6s.73-.2.92-.61c.2-.4.3-1.07.3-1.99s-.1-1.59-.3-2ZM39.43,55.05c-.19-.41-.5-.61-.92-.61s-.73.2-.93.6c-.19.4-.28,1.07-.28,2.01s.09,1.6.28,2c.2.4.5.6.93.6s.73-.2.92-.61c.2-.4.3-1.07.3-1.99s-.1-1.59-.3-2ZM33.95,55.05c-.2-.41-.51-.61-.93-.61s-.73.2-.92.6c-.19.4-.29,1.07-.29,2.01s.1,1.6.29,2,.5.6.92.6.73-.2.93-.61c.19-.4.29-1.07.29-1.99s-.1-1.59-.29-2ZM47.41,19.42c-15.45,0-27.98,12.53-27.98,27.98s12.53,27.98,27.98,27.98,27.98-12.52,27.98-27.98-12.53-27.98-27.98-27.98ZM29.04,59.57c-.54.67-1.36,1-2.46,1-.41,0-.71-.02-.89-.07v-.93c.27.08.55.12.84.12.74,0,1.3-.2,1.66-.6.37-.4.57-1.03.6-1.89h-.05c-.19.29-.41.49-.67.61-.26.13-.57.19-.92.19-.61,0-1.08-.19-1.43-.57-.35-.37-.52-.89-.52-1.55,0-.72.2-1.29.6-1.71.4-.43.95-.64,1.65-.64.48,0,.91.12,1.27.36.36.23.65.58.84,1.03.2.45.3.99.3,1.63,0,1.35-.27,2.36-.82,3.02ZM34.78,59.7c-.39.58-.97.87-1.76.87s-1.34-.3-1.74-.89c-.39-.6-.59-1.48-.59-2.63,0-1.21.19-2.1.58-2.68.38-.57.97-.86,1.75-.86s1.35.3,1.74.9c.4.6.59,1.48.59,2.64s-.19,2.08-.57,2.65ZM35.87,34.07h-.54c-.47,0-.85.08-1.14.23-.21.1-.37.27-.49.52-.09.17-.14.62-.14,1.36v9.65c0,.75.05,1.22.14,1.41.09.18.27.35.54.49s.63.21,1.09.21h.54v.4h-8.52v-.4h.54c.47,0,.85-.08,1.14-.23.21-.1.37-.27.48-.52.09-.17.13-.62.13-1.36v-9.65c0-.75-.04-1.22-.13-1.41-.09-.18-.26-.35-.53-.49-.27-.14-.63-.21-1.09-.21h-.54v-.4h8.52v.4ZM40.26,59.7c-.38.58-.97.87-1.75.87s-1.35-.3-1.74-.89c-.39-.6-.59-1.48-.59-2.63,0-1.21.19-2.1.57-2.68.39-.57.97-.86,1.76-.86s1.34.3,1.74.9c.39.6.59,1.48.59,2.64s-.19,2.08-.58,2.65ZM44.91,60.48h-1.1v-4.43c0-.53.01-.95.04-1.26-.08.08-.16.16-.27.25-.1.09-.45.38-1.05.86l-.56-.7,2.02-1.58h.92v6.86ZM48.57,60.42c-.12.13-.29.2-.51.2s-.4-.07-.52-.2-.18-.3-.18-.53.06-.4.18-.52.29-.19.52-.19.4.07.52.19c.12.13.18.3.18.52s-.07.4-.19.53ZM48.57,56.41c-.12.13-.29.2-.51.2s-.4-.07-.52-.19c-.12-.13-.18-.31-.18-.53,0-.48.23-.71.7-.71.23,0,.41.06.52.18.12.13.18.3.18.53s-.07.39-.19.52ZM47.55,47.36c-1.06.89-2.41,1.33-4.05,1.33-.51,0-.99-.05-1.45-.14-.46-.1-1.03-.27-1.72-.53-.38-.15-.7-.22-.95-.22-.21,0-.43.07-.66.22-.23.14-.42.36-.57.66h-.44v-5.54h.44c.36,1.55,1.04,2.74,2.04,3.56,1.01.82,2.09,1.23,3.25,1.23.9,0,1.62-.22,2.15-.66.53-.44.8-.95.8-1.54,0-.34-.1-.68-.31-1-.2-.33-.51-.64-.93-.93-.42-.29-1.15-.67-2.21-1.14-1.48-.66-2.55-1.21-3.2-1.68-.65-.46-1.15-.97-1.5-1.54-.34-.57-.52-1.2-.52-1.89,0-1.16.48-2.16,1.43-2.98.96-.82,2.16-1.24,3.61-1.24.53,0,1.04.06,1.54.18.37.08.83.24,1.37.48.54.23.92.35,1.14.35s.37-.06.49-.17c.12-.12.23-.4.34-.84h.36l.13,4.89h-.49c-.23-1.22-.8-2.21-1.71-2.95-.91-.75-1.9-1.12-2.96-1.12-.81,0-1.46.19-1.94.59-.47.39-.71.84-.71,1.35,0,.33.08.62.25.87.23.34.61.67,1.12,1,.38.24,1.24.66,2.61,1.27,1.9.84,3.19,1.64,3.86,2.39.65.75.98,1.61.98,2.58,0,1.22-.53,2.28-1.59,3.16ZM54.45,60.48h-4.65v-.84l1.77-1.77c.52-.54.87-.92,1.04-1.14.17-.23.3-.44.37-.63.08-.2.12-.41.12-.64,0-.31-.09-.55-.28-.73-.18-.18-.44-.27-.77-.27-.26,0-.52.05-.76.15-.25.1-.53.27-.86.52l-.59-.72c.38-.33.75-.55,1.11-.69.36-.13.74-.2,1.15-.2.64,0,1.15.17,1.54.5.38.33.57.78.57,1.34,0,.31-.05.61-.16.89-.12.28-.29.56-.52.86-.23.29-.61.69-1.14,1.2l-1.19,1.15v.05h3.25v.97ZM59.36,59.7c-.38.58-.97.87-1.75.87s-1.35-.3-1.74-.89c-.4-.6-.59-1.48-.59-2.63,0-1.21.19-2.1.57-2.68.39-.57.97-.86,1.76-.86s1.34.3,1.74.9c.39.6.59,1.48.59,2.64s-.19,2.08-.58,2.65ZM64.01,60.48h-1.1v-4.43c0-.53.01-.95.04-1.26-.08.08-.16.16-.27.25-.1.09-.46.38-1.05.86l-.56-.7,2.02-1.58h.92v6.86ZM59.79,48.68c-2.93,0-5.2-.9-6.8-2.69-1.27-1.41-1.9-3.09-1.9-5.03,0-2.18.82-3.99,2.47-5.45,1.65-1.45,3.67-2.13,6.07-2.05,2.6-.08,4.71.6,6.33,2.05,1.63,1.45,2.44,3.26,2.44,5.44,0,1.86-.61,3.5-1.82,4.91-1.6,1.88-3.86,2.82-6.79,2.82ZM68.19,60.57c-.76,0-1.37-.12-1.8-.37v-1c.25.15.54.26.87.34.33.07.63.11.91.11.5,0,.88-.11,1.14-.33.26-.22.39-.55.39-.98,0-.82-.52-1.23-1.57-1.23-.15,0-.33.02-.54.05-.22.03-.41.06-.57.1l-.49-.29.26-3.35h3.57v.98h-2.6l-.15,1.7c.1-.02.24-.04.4-.07.15-.02.35-.04.58-.04.69,0,1.24.19,1.64.55.4.37.6.87.6,1.5,0,.73-.23,1.3-.68,1.72-.46.41-1.11.61-1.96.61ZM61.92,34.75c-.62-.4-1.33-.59-2.14-.59-1.49,0-2.63.68-3.4,2.05-.64,1.13-.95,2.74-.95,4.85,0,2.5.49,4.35,1.46,5.55.69.84,1.64,1.25,2.86,1.25.83,0,1.52-.18,2.07-.54.71-.46,1.26-1.2,1.65-2.21.39-1.01.59-2.33.59-3.96,0-1.94-.2-3.4-.6-4.36-.4-.96-.91-1.64-1.54-2.04ZM57.61,54.44c-.43,0-.73.2-.93.6-.19.4-.29,1.07-.29,2.01s.1,1.6.29,2c.2.4.5.6.93.6s.73-.2.92-.61c.2-.4.3-1.07.3-1.99s-.1-1.59-.3-2c-.19-.41-.5-.61-.92-.61ZM38.51,54.44c-.43,0-.73.2-.93.6-.19.4-.28,1.07-.28,2.01s.09,1.6.28,2c.2.4.5.6.93.6s.73-.2.92-.61c.2-.4.3-1.07.3-1.99s-.1-1.59-.3-2c-.19-.41-.5-.61-.92-.61ZM33.02,54.44c-.42,0-.73.2-.92.6-.19.4-.29,1.07-.29,2.01s.1,1.6.29,2,.5.6.92.6.73-.2.93-.61c.19-.4.29-1.07.29-1.99s-.1-1.59-.29-2c-.2-.41-.51-.61-.93-.61ZM33.95,55.05c-.2-.41-.51-.61-.93-.61s-.73.2-.92.6c-.19.4-.29,1.07-.29,2.01s.1,1.6.29,2,.5.6.92.6.73-.2.93-.61c.19-.4.29-1.07.29-1.99s-.1-1.59-.29-2ZM39.43,55.05c-.19-.41-.5-.61-.92-.61s-.73.2-.93.6c-.19.4-.28,1.07-.28,2.01s.09,1.6.28,2c.2.4.5.6.93.6s.73-.2.92-.61c.2-.4.3-1.07.3-1.99s-.1-1.59-.3-2ZM58.53,55.05c-.19-.41-.5-.61-.92-.61s-.73.2-.93.6c-.19.4-.29,1.07-.29,2.01s.1,1.6.29,2c.2.4.5.6.93.6s.73-.2.92-.61c.2-.4.3-1.07.3-1.99s-.1-1.59-.3-2ZM58.53,55.05c-.19-.41-.5-.61-.92-.61s-.73.2-.93.6c-.19.4-.29,1.07-.29,2.01s.1,1.6.29,2c.2.4.5.6.93.6s.73-.2.92-.61c.2-.4.3-1.07.3-1.99s-.1-1.59-.3-2ZM39.43,55.05c-.19-.41-.5-.61-.92-.61s-.73.2-.93.6c-.19.4-.28,1.07-.28,2.01s.09,1.6.28,2c.2.4.5.6.93.6s.73-.2.92-.61c.2-.4.3-1.07.3-1.99s-.1-1.59-.3-2ZM33.95,55.05c-.2-.41-.51-.61-.93-.61s-.73.2-.92.6c-.19.4-.29,1.07-.29,2.01s.1,1.6.29,2,.5.6.92.6.73-.2.93-.61c.19-.4.29-1.07.29-1.99s-.1-1.59-.29-2ZM33.95,55.05c-.2-.41-.51-.61-.93-.61s-.73.2-.92.6c-.19.4-.29,1.07-.29,2.01s.1,1.6.29,2,.5.6.92.6.73-.2.93-.61c.19-.4.29-1.07.29-1.99s-.1-1.59-.29-2ZM39.43,55.05c-.19-.41-.5-.61-.92-.61s-.73.2-.93.6c-.19.4-.28,1.07-.28,2.01s.09,1.6.28,2c.2.4.5.6.93.6s.73-.2.92-.61c.2-.4.3-1.07.3-1.99s-.1-1.59-.3-2ZM39.43,55.05c-.19-.41-.5-.61-.92-.61s-.73.2-.93.6c-.19.4-.28,1.07-.28,2.01s.09,1.6.28,2c.2.4.5.6.93.6s.73-.2.92-.61c.2-.4.3-1.07.3-1.99s-.1-1.59-.3-2ZM33.95,55.05c-.2-.41-.51-.61-.93-.61s-.73.2-.92.6c-.19.4-.29,1.07-.29,2.01s.1,1.6.29,2,.5.6.92.6.73-.2.93-.61c.19-.4.29-1.07.29-1.99s-.1-1.59-.29-2ZM33.95,55.05c-.2-.41-.51-.61-.93-.61s-.73.2-.92.6c-.19.4-.29,1.07-.29,2.01s.1,1.6.29,2,.5.6.92.6.73-.2.93-.61c.19-.4.29-1.07.29-1.99s-.1-1.59-.29-2ZM39.43,55.05c-.19-.41-.5-.61-.92-.61s-.73.2-.93.6c-.19.4-.28,1.07-.28,2.01s.09,1.6.28,2c.2.4.5.6.93.6s.73-.2.92-.61c.2-.4.3-1.07.3-1.99s-.1-1.59-.3-2ZM39.43,55.05c-.19-.41-.5-.61-.92-.61s-.73.2-.93.6c-.19.4-.28,1.07-.28,2.01s.09,1.6.28,2c.2.4.5.6.93.6s.73-.2.92-.61c.2-.4.3-1.07.3-1.99s-.1-1.59-.3-2ZM33.95,55.05c-.2-.41-.51-.61-.93-.61s-.73.2-.92.6c-.19.4-.29,1.07-.29,2.01s.1,1.6.29,2,.5.6.92.6.73-.2.93-.61c.19-.4.29-1.07.29-1.99s-.1-1.59-.29-2ZM33.95,55.05c-.2-.41-.51-.61-.93-.61s-.73.2-.92.6c-.19.4-.29,1.07-.29,2.01s.1,1.6.29,2,.5.6.92.6.73-.2.93-.61c.19-.4.29-1.07.29-1.99s-.1-1.59-.29-2ZM39.43,55.05c-.19-.41-.5-.61-.92-.61s-.73.2-.93.6c-.19.4-.28,1.07-.28,2.01s.09,1.6.28,2c.2.4.5.6.93.6s.73-.2.92-.61c.2-.4.3-1.07.3-1.99s-.1-1.59-.3-2ZM39.43,55.05c-.19-.41-.5-.61-.92-.61s-.73.2-.93.6c-.19.4-.28,1.07-.28,2.01s.09,1.6.28,2c.2.4.5.6.93.6s.73-.2.92-.61c.2-.4.3-1.07.3-1.99s-.1-1.59-.3-2ZM33.95,55.05c-.2-.41-.51-.61-.93-.61s-.73.2-.92.6c-.19.4-.29,1.07-.29,2.01s.1,1.6.29,2,.5.6.92.6.73-.2.93-.61c.19-.4.29-1.07.29-1.99s-.1-1.59-.29-2ZM33.95,55.05c-.2-.41-.51-.61-.93-.61s-.73.2-.92.6c-.19.4-.29,1.07-.29,2.01s.1,1.6.29,2,.5.6.92.6.73-.2.93-.61c.19-.4.29-1.07.29-1.99s-.1-1.59-.29-2ZM39.43,55.05c-.19-.41-.5-.61-.92-.61s-.73.2-.93.6c-.19.4-.28,1.07-.28,2.01s.09,1.6.28,2c.2.4.5.6.93.6s.73-.2.92-.61c.2-.4.3-1.07.3-1.99s-.1-1.59-.3-2ZM39.43,55.05c-.19-.41-.5-.61-.92-.61s-.73.2-.93.6c-.19.4-.28,1.07-.28,2.01s.09,1.6.28,2c.2.4.5.6.93.6s.73-.2.92-.61c.2-.4.3-1.07.3-1.99s-.1-1.59-.3-2ZM33.95,55.05c-.2-.41-.51-.61-.93-.61s-.73.2-.92.6c-.19.4-.29,1.07-.29,2.01s.1,1.6.29,2,.5.6.92.6.73-.2.93-.61c.19-.4.29-1.07.29-1.99s-.1-1.59-.29-2Z" fill="#fff" stroke-width="0"/>
  </g>
  <g>
    <g>
      <path d="M219.21,46.37c0,2.98-1.07,5.32-3.21,7.04-2.14,1.71-5.12,2.57-8.94,2.57-3.52,0-6.63-.66-9.34-1.98v-6.49c2.22.99,4.11,1.69,5.65,2.1,1.54.41,2.95.61,4.23.61,1.53,0,2.71-.29,3.53-.88.82-.59,1.23-1.46,1.23-2.62,0-.65-.18-1.22-.54-1.72-.36-.5-.89-.99-1.59-1.45-.7-.47-2.12-1.21-4.27-2.23-2.01-.95-3.53-1.86-4.53-2.73-1.01-.87-1.81-1.89-2.41-3.04-.6-1.16-.9-2.51-.9-4.06,0-2.92.99-5.21,2.96-6.88,1.98-1.67,4.71-2.5,8.2-2.5,1.71,0,3.35.2,4.9.61s3.18.98,4.88,1.71l-2.25,5.43c-1.76-.72-3.21-1.23-4.36-1.51-1.15-.29-2.28-.43-3.39-.43-1.32,0-2.34.31-3.04.92-.71.62-1.06,1.42-1.06,2.41,0,.62.14,1.15.43,1.61.29.46.74.9,1.36,1.33.62.43,2.1,1.2,4.43,2.31,3.08,1.47,5.19,2.95,6.34,4.43,1.14,1.48,1.71,3.3,1.71,5.45Z" fill="#fff" stroke-width="0"/>
      <path d="M244.65,46.37c0,2.98-1.07,5.32-3.21,7.04-2.14,1.71-5.12,2.57-8.94,2.57-3.52,0-6.63-.66-9.34-1.98v-6.49c2.22.99,4.11,1.69,5.65,2.1,1.54.41,2.95.61,4.23.61,1.53,0,2.71-.29,3.53-.88.82-.59,1.23-1.46,1.23-2.62,0-.65-.18-1.22-.54-1.72-.36-.5-.89-.99-1.59-1.45-.7-.47-2.12-1.21-4.27-2.23-2.01-.95-3.53-1.86-4.53-2.73-1.01-.87-1.81-1.89-2.41-3.04-.6-1.16-.9-2.51-.9-4.06,0-2.92.99-5.21,2.96-6.88,1.98-1.67,4.71-2.5,8.2-2.5,1.71,0,3.35.2,4.9.61s3.18.98,4.88,1.71l-2.25,5.43c-1.76-.72-3.21-1.23-4.36-1.51-1.15-.29-2.28-.43-3.39-.43-1.32,0-2.34.31-3.04.92-.71.62-1.06,1.42-1.06,2.41,0,.62.14,1.15.43,1.61.29.46.74.9,1.36,1.33.62.43,2.1,1.2,4.43,2.31,3.08,1.47,5.19,2.95,6.34,4.43,1.14,1.48,1.71,3.3,1.71,5.45Z" fill="#fff" stroke-width="0"/>
      <path d="M250.63,55.53V22.56h6.99v27.19h13.37v5.77h-20.36Z" fill="#fff" stroke-width="0"/>
    </g>
    <g>
      <path d="M203.84,68.13c0,1.17-.42,2.09-1.26,2.76-.84.67-2.01,1.01-3.51,1.01-1.38,0-2.6-.26-3.67-.78v-2.55c.87.39,1.61.67,2.22.82.6.16,1.16.24,1.66.24.6,0,1.06-.12,1.39-.35.32-.23.48-.57.48-1.03,0-.25-.07-.48-.21-.68-.14-.2-.35-.39-.62-.57-.27-.18-.83-.48-1.68-.88-.79-.37-1.38-.73-1.78-1.07-.4-.34-.71-.74-.95-1.2-.24-.45-.35-.99-.35-1.59,0-1.15.39-2.05,1.16-2.7.78-.66,1.85-.98,3.22-.98.67,0,1.32.08,1.93.24.61.16,1.25.38,1.92.67l-.89,2.13c-.69-.28-1.26-.48-1.71-.59-.45-.11-.9-.17-1.33-.17-.52,0-.92.12-1.2.36s-.42.56-.42.95c0,.24.06.45.17.63.11.18.29.35.54.52.25.17.83.47,1.74.91,1.21.58,2.04,1.16,2.49,1.74.45.58.67,1.29.67,2.14Z" fill="#fff" stroke-width="0"/>
      <path d="M213.64,71.72h-7.46v-12.95h7.46v2.25h-4.71v2.84h4.38v2.25h-4.38v3.34h4.71v2.27Z" fill="#fff" stroke-width="0"/>
      <path d="M221.84,60.87c-1.03,0-1.83.39-2.4,1.16-.57.78-.85,1.86-.85,3.25,0,2.89,1.08,4.33,3.25,4.33.91,0,2.01-.23,3.3-.68v2.3c-1.06.44-2.25.67-3.56.67-1.88,0-3.32-.57-4.32-1.71s-1.5-2.78-1.5-4.92c0-1.35.25-2.53.74-3.54s1.19-1.79,2.11-2.33c.92-.54,1.99-.81,3.23-.81s2.52.3,3.79.91l-.89,2.23c-.48-.23-.97-.43-1.46-.6-.49-.17-.97-.26-1.44-.26Z" fill="#fff" stroke-width="0"/>
      <path d="M238.44,58.77v8.38c0,.96-.21,1.79-.64,2.52-.43.72-1.05,1.27-1.86,1.66-.81.38-1.77.58-2.87.58-1.67,0-2.96-.43-3.88-1.28s-1.38-2.02-1.38-3.5v-8.34h2.74v7.93c0,1,.2,1.73.6,2.2.4.47,1.07.7,1.99.7s1.55-.23,1.95-.7c.4-.47.61-1.21.61-2.21v-7.91h2.74Z" fill="#fff" stroke-width="0"/>
      <path d="M244.36,66.75v4.97h-2.75v-12.95h3.77c1.76,0,3.06.32,3.91.96.84.64,1.27,1.61,1.27,2.92,0,.76-.21,1.44-.63,2.03-.42.59-1.01,1.06-1.78,1.4,1.95,2.91,3.22,4.79,3.81,5.64h-3.05l-3.09-4.97h-1.46ZM244.36,64.52h.89c.87,0,1.51-.14,1.92-.43.41-.29.62-.74.62-1.36s-.21-1.05-.63-1.31-1.08-.39-1.96-.39h-.83v3.5Z" fill="#fff" stroke-width="0"/>
      <path d="M261.04,71.72h-7.46v-12.95h7.46v2.25h-4.71v2.84h4.38v2.25h-4.38v3.34h4.71v2.27Z" fill="#fff" stroke-width="0"/>
      <path d="M274.49,65.12c0,2.13-.61,3.76-1.82,4.9-1.21,1.13-2.97,1.7-5.26,1.7h-3.67v-12.95h4.07c2.11,0,3.76.56,4.92,1.67,1.17,1.12,1.75,2.67,1.75,4.68ZM271.64,65.19c0-2.78-1.23-4.17-3.68-4.17h-1.46v8.43h1.18c2.65,0,3.97-1.42,3.97-4.26Z" fill="#fff" stroke-width="0"/>
    </g>
  </g>
  <g>
    <path d="M144.85,2.62l-34.96,9.13v35.42c0,5.23,1.12,10.4,3.4,15.1,4.15,8.54,13.05,20.31,31.55,25.39h0c18.5-5.08,27.81-16.85,31.96-25.39,2.28-4.7,3.4-9.88,3.4-15.1V11.75s-35.36-9.13-35.36-9.13h0Z" fill="none" stroke="#fff" stroke-linecap="round" stroke-linejoin="round" stroke-width="4"/>
    <rect x="131.25" y="35.33" width="27" height="24.16" fill="none" stroke="#fff" stroke-linecap="round" stroke-linejoin="round" stroke-width="4"/>
    <path d="M144.9,17.33h0c4.72,0,8.56,3.84,8.56,8.56v9.19h-17.12v-9.19c0-4.72,3.84-8.56,8.56-8.56Z" fill="none" stroke="#fff" stroke-linecap="round" stroke-linejoin="round" stroke-width="4"/>
    <polyline points="139.7 45.14 143.35 48.73 151.31 41.55" fill="none" stroke="#fff" stroke-linecap="round" stroke-linejoin="round" stroke-width="4"/>
  </g>
</svg>