<svg xmlns="http://www.w3.org/2000/svg" viewBox="0 0 215.81 170.38"><defs><style>.cls-1{fill:#fff;}</style></defs><g id="Layer_2" data-name="Layer 2"><g id="Layer_1-2" data-name="Layer 1"><path class="cls-1" d="M57.68,107.08V59.36a1.69,1.69,0,0,1,1.68-1.68H214.13a1.68,1.68,0,0,0,1.19-2.86L161.4.5a1.69,1.69,0,0,0-1.19-.5H1.68A1.68,1.68,0,0,0,0,1.68V52.75a1.68,1.68,0,0,0,.49,1.18l54.33,54.34A1.68,1.68,0,0,0,57.68,107.08Z"/><path class="cls-1" d="M215.32,116.45,161,62.11a1.68,1.68,0,0,0-2.87,1.19V111a1.68,1.68,0,0,1-1.67,1.68H1.68a1.68,1.68,0,0,0-1.19,2.86l53.92,54.32a1.69,1.69,0,0,0,1.19.5H214.13a1.68,1.68,0,0,0,1.68-1.68V117.63A1.68,1.68,0,0,0,215.32,116.45Z"/></g></g></svg>