<?xml version="1.0" encoding="UTF-8"?>
<svg id="a" data-name="Layer 1" xmlns="http://www.w3.org/2000/svg" viewBox="0 0 290.94 69.79">
  <rect y="23.22" width="140.43" height="46.57" rx="9.85" ry="9.85" fill="#fff" stroke-width="0"/>
  <rect x="150.51" y="22.7" width="140.43" height="46.57" rx="9.85" ry="9.85" fill="#fff" stroke-width="0"/>
  <path d="M54.29,37.64h-6.84c-.47,0-.87.34-.94.8l-2.77,17.54c-.06.35.21.66.56.66h3.26c.47,0,.87-.34.94-.8l.75-4.73c.07-.46.47-.8.94-.8h2.17c4.51,0,7.1-2.18,7.78-6.5.31-1.89.01-3.38-.87-4.41-.97-1.14-2.7-1.75-4.98-1.75ZM55.08,44.05c-.37,2.45-2.25,2.45-4.06,2.45h-1.03l.72-4.58c.04-.28.28-.48.56-.48h.47c1.24,0,2.4,0,3,.7.36.42.47,1.04.33,1.91Z" fill="#253b80" stroke-width="0"/>
  <path d="M74.74,43.97h-3.28c-.28,0-.52.2-.56.48l-.15.92-.23-.33c-.71-1.03-2.29-1.37-3.87-1.37-3.62,0-6.71,2.74-7.31,6.59-.31,1.92.13,3.75,1.22,5.03,1,1.18,2.43,1.67,4.12,1.67,2.92,0,4.53-1.88,4.53-1.88l-.15.91c-.06.35.21.66.56.66h2.95c.47,0,.86-.34.94-.8l1.77-11.21c.06-.35-.21-.66-.56-.66ZM70.17,50.34c-.32,1.87-1.8,3.13-3.69,3.13-.95,0-1.71-.31-2.2-.88-.48-.57-.67-1.39-.51-2.3.29-1.85,1.81-3.15,3.67-3.15.93,0,1.69.31,2.18.89.5.59.7,1.41.55,2.32Z" fill="#253b80" stroke-width="0"/>
  <path d="M92.18,43.97h-3.29c-.31,0-.61.16-.79.42l-4.54,6.69-1.92-6.43c-.12-.4-.49-.68-.91-.68h-3.23c-.39,0-.67.38-.54.75l3.62,10.64-3.41,4.81c-.27.38,0,.9.46.9h3.29c.31,0,.6-.15.78-.41l10.95-15.8c.26-.38,0-.9-.47-.9Z" fill="#253b80" stroke-width="0"/>
  <path d="M103.08,37.64h-6.84c-.47,0-.86.34-.94.8l-2.77,17.54c-.06.35.21.66.56.66h3.51c.33,0,.61-.24.66-.56l.79-4.97c.07-.46.47-.8.94-.8h2.16c4.51,0,7.11-2.18,7.78-6.5.31-1.89.01-3.38-.87-4.41-.97-1.14-2.69-1.75-4.98-1.75ZM103.86,44.05c-.37,2.45-2.25,2.45-4.06,2.45h-1.03l.72-4.58c.04-.28.28-.48.56-.48h.47c1.23,0,2.4,0,3,.7.36.42.47,1.04.33,1.91Z" fill="#179bd7" stroke-width="0"/>
  <path d="M123.52,43.97h-3.27c-.28,0-.52.2-.56.48l-.14.92-.23-.33c-.71-1.03-2.29-1.37-3.87-1.37-3.62,0-6.71,2.74-7.31,6.59-.31,1.92.13,3.75,1.22,5.03,1,1.18,2.43,1.67,4.12,1.67,2.92,0,4.53-1.88,4.53-1.88l-.15.91c-.06.35.21.66.56.66h2.95c.47,0,.86-.34.94-.8l1.77-11.21c.05-.35-.21-.66-.57-.66ZM118.95,50.34c-.31,1.87-1.8,3.13-3.69,3.13-.95,0-1.71-.31-2.2-.88-.48-.57-.67-1.39-.51-2.3.3-1.85,1.81-3.15,3.67-3.15.93,0,1.69.31,2.18.89.5.59.7,1.41.55,2.32Z" fill="#179bd7" stroke-width="0"/>
  <path d="M127.38,38.13l-2.81,17.86c-.06.35.21.66.56.66h2.82c.47,0,.87-.34.94-.8l2.77-17.54c.06-.35-.21-.66-.56-.66h-3.16c-.28,0-.52.21-.56.48Z" fill="#179bd7" stroke-width="0"/>
  <path d="M15.35,60.05l.52-3.32-1.16-.03h-5.56l3.87-24.51c.01-.07.05-.14.11-.19.06-.05.13-.08.21-.08h9.38c3.11,0,5.26.65,6.39,1.93.53.6.86,1.23,1.02,1.92.17.72.17,1.59,0,2.64v.08s-.01.68-.01.68l.53.3c.44.23.8.5,1.07.81.45.51.74,1.16.86,1.94.13.8.08,1.74-.12,2.81-.24,1.23-.63,2.3-1.15,3.18-.48.81-1.1,1.48-1.83,2-.7.49-1.52.87-2.46,1.11-.91.24-1.94.35-3.07.35h-.73c-.52,0-1.03.19-1.43.52-.4.34-.66.81-.74,1.33l-.06.3-.92,5.85-.04.22c-.01.07-.03.1-.06.12-.02.02-.06.03-.1.03,0,0-4.51,0-4.51,0Z" fill="#253b80" stroke-width="0"/>
  <path d="M31.13,38.56h0c-.03.18-.06.36-.1.55-1.24,6.35-5.47,8.55-10.87,8.55h-2.75c-.66,0-1.22.48-1.32,1.13h0l-1.41,8.94-.4,2.53c-.07.43.26.81.7.81h4.88c.58,0,1.07-.42,1.16-.99l.05-.25.92-5.83.06-.32c.09-.57.58-.99,1.16-.99h.73c4.73,0,8.43-1.92,9.51-7.48.45-2.32.22-4.26-.98-5.62-.36-.41-.81-.75-1.34-1.03Z" fill="#179bd7" stroke-width="0"/>
  <path d="M29.84,38.05c-.19-.05-.38-.11-.58-.15-.2-.04-.41-.08-.62-.12-.74-.12-1.56-.18-2.43-.18h-7.35c-.18,0-.35.04-.51.11-.34.16-.59.48-.65.88l-1.56,9.91-.05.29c.1-.65.66-1.13,1.32-1.13h2.75c5.4,0,9.64-2.19,10.87-8.55.04-.19.07-.37.1-.55-.31-.17-.65-.31-1.02-.43-.09-.03-.18-.06-.28-.09Z" fill="#222d65" stroke-width="0"/>
  <path d="M17.7,38.59c.06-.39.31-.71.65-.88.15-.07.33-.11.51-.11h7.35c.87,0,1.68.06,2.43.18.21.03.42.07.62.12.2.05.4.09.58.15.09.03.19.06.28.09.36.12.7.26,1.02.43.37-2.35,0-3.94-1.27-5.39-1.4-1.59-3.92-2.28-7.16-2.28h-9.38c-.66,0-1.22.48-1.33,1.13l-3.91,24.77c-.08.49.3.93.8.93h5.79l1.45-9.23,1.56-9.91Z" fill="#253b80" stroke-width="0"/>
  <g id="b" data-name="Page-1">
    <g id="c" data-name="Group">
      <path id="d" data-name="Fill-1" d="M187.62,43.89c-.2.75-.59,1.3-1.17,1.65-.58.35-1.39.53-2.44.53h-3.33l1.17-4.36h3.33c1.05,0,1.77.18,2.16.53.39.35.48.9.28,1.65M191.07,43.8c.42-1.58.25-2.79-.53-3.63-.77-.84-2.13-1.27-4.07-1.27h-7.43l-4.47,16.68h3.61l1.8-6.73h2.37c.53,0,.95.09,1.25.26.31.17.49.48.54.91l.64,5.55h3.87l-.63-5.18c-.13-1.16-.66-1.84-1.59-2.04,1.19-.34,2.18-.91,2.98-1.71.8-.8,1.35-1.75,1.64-2.86" fill="#072654" fill-rule="evenodd" stroke-width="0"/>
      <path id="e" data-name="Fill-3" d="M199.84,49.61c-.3,1.12-.77,1.98-1.39,2.58-.63.59-1.38.89-2.25.89s-1.5-.29-1.82-.88c-.32-.59-.33-1.43-.03-2.54.3-1.11.77-1.98,1.42-2.6.65-.62,1.41-.94,2.29-.94s1.47.3,1.77.9c.31.6.31,1.46,0,2.59h0ZM201.42,43.7l-.45,1.69c-.2-.61-.57-1.09-1.13-1.45-.56-.36-1.25-.54-2.08-.54-1.02,0-1.99.26-2.93.79-.94.52-1.76,1.26-2.46,2.21-.7.95-1.21,2.04-1.54,3.26-.33,1.22-.39,2.29-.2,3.22.2.93.62,1.64,1.28,2.14.65.5,1.5.75,2.53.75.83,0,1.62-.17,2.36-.52.75-.34,1.38-.82,1.91-1.43l-.47,1.76h3.49l3.18-11.88h-3.49Z" fill="#072654" fill-rule="evenodd" stroke-width="0"/>
      <polygon id="f" data-name="Fill-5" points="217.47 43.7 207.32 43.7 206.61 46.35 212.52 46.35 204.71 53.1 204.04 55.58 214.52 55.58 215.23 52.94 208.9 52.94 216.83 46.09 217.47 43.7" fill="#072654" fill-rule="evenodd" stroke-width="0"/>
      <path id="g" data-name="Fill-7" d="M226.4,49.58c-.31,1.17-.78,2.05-1.39,2.62-.62.58-1.36.87-2.24.87-1.83,0-2.43-1.16-1.81-3.49.31-1.16.78-2.03,1.4-2.61.63-.59,1.38-.88,2.27-.88s1.46.29,1.77.88c.3.59.3,1.46,0,2.61M228.44,44.15c-.8-.5-1.83-.75-3.08-.75s-2.44.25-3.52.75c-1.08.5-2,1.22-2.76,2.16-.76.94-1.31,2.03-1.64,3.28s-.37,2.34-.12,3.28c.26.94.79,1.66,1.6,2.16.81.5,1.85.75,3.12.75s2.41-.25,3.48-.75c1.07-.5,1.99-1.22,2.74-2.16.76-.94,1.31-2.03,1.64-3.28s.37-2.34.12-3.28c-.26-.94-.79-1.66-1.59-2.16" fill="#072654" fill-rule="evenodd" stroke-width="0"/>
      <path id="h" data-name="Fill-9" d="M264.96,49.61c-.3,1.12-.77,1.98-1.39,2.58-.63.59-1.38.89-2.25.89s-1.5-.29-1.81-.88c-.32-.59-.33-1.43-.03-2.54.3-1.11.77-1.98,1.42-2.6.65-.62,1.41-.94,2.29-.94s1.47.3,1.77.9c.31.6.31,1.46,0,2.59h0ZM266.54,43.7l-.45,1.69c-.2-.61-.57-1.09-1.13-1.45-.56-.36-1.25-.54-2.08-.54-1.02,0-1.99.26-2.93.79-.94.52-1.76,1.26-2.46,2.21-.7.95-1.21,2.04-1.54,3.26-.33,1.22-.39,2.29-.2,3.22.2.93.62,1.64,1.28,2.14.65.5,1.5.75,2.53.75.83,0,1.62-.17,2.36-.52.75-.34,1.38-.82,1.91-1.43l-.47,1.76h3.49l3.18-11.88h-3.49Z" fill="#072654" fill-rule="evenodd" stroke-width="0"/>
      <path id="i" data-name="Fill-11" d="M240.89,46.89l.89-3.23c-.3-.16-.7-.23-1.2-.23-.8,0-1.56.2-2.3.6-.64.34-1.18.82-1.63,1.42l.46-1.74h-1.01s-2.48,0-2.48,0l-3.21,11.88h3.54l1.66-6.21c.24-.91.68-1.61,1.31-2.12.63-.51,1.41-.76,2.35-.76.58,0,1.12.13,1.63.4" fill="#072654" fill-rule="evenodd" stroke-width="0"/>
      <path id="j" data-name="Fill-13" d="M250.74,49.65c-.3,1.11-.76,1.96-1.38,2.54-.63.59-1.38.88-2.25.88s-1.47-.3-1.79-.89c-.32-.59-.33-1.45-.02-2.58.3-1.12.77-1.99,1.41-2.59.64-.6,1.39-.9,2.27-.9s1.44.31,1.75.94c.31.62.31,1.49.02,2.6M253.22,44.18c-.66-.52-1.49-.78-2.51-.78-.89,0-1.74.2-2.54.61-.8.41-1.46.96-1.96,1.66v-.08s.61-1.89.61-1.89h-.68s-2.77,0-2.77,0l-.88,3.29s-.02.07-.03.11l-3.63,13.54h3.54l1.83-6.82c.18.61.55,1.09,1.12,1.43.56.34,1.26.52,2.09.52,1.03,0,2.01-.25,2.94-.75.93-.5,1.74-1.21,2.43-2.14.69-.93,1.19-2,1.52-3.22.33-1.22.39-2.3.2-3.26-.19-.95-.61-1.69-1.27-2.21" fill="#072654" fill-rule="evenodd" stroke-width="0"/>
      <path id="k" data-name="Fill-15" d="M284.69,43.71h0s-2.14,0-2.14,0c-.07,0-.13,0-.19,0h-1.11l-.57.79c-.05.06-.09.12-.14.19l-.06.09-4.52,6.3-.94-7.37h-3.7l1.88,11.21-4.14,5.74h3.69l1-1.42s.05-.08.09-.12l1.17-1.66.03-.05,5.24-7.43,4.42-6.25h0s0,0,0,0Z" fill="#072654" fill-rule="evenodd" stroke-width="0"/>
      <polygon id="l" data-name="Fill-17" points="165.48 40.81 164.42 44.71 170.48 40.79 166.52 55.58 170.55 55.58 176.4 33.74 165.48 40.81" fill="#3395ff" fill-rule="evenodd" stroke-width="0"/>
      <path id="m" data-name="Fill-19" d="M158.96,49.37l-1.67,6.22h8.25s3.38-12.65,3.38-12.65c0,0-9.96,6.43-9.96,6.43" fill="#072654" fill-rule="evenodd" stroke-width="0"/>
    </g>
  </g>
  <g>
    <path d="M89.06,2.54c.67-.12,1.57-.21,2.79-.21,1.33,0,2.3.28,2.93.82.59.49.98,1.27.98,2.21s-.3,1.72-.84,2.25c-.74.73-1.87,1.08-3.16,1.08-.34,0-.64-.01-.89-.07v3.78h-1.81V2.54ZM90.87,7.18c.24.07.52.09.89.09,1.36,0,2.19-.68,2.19-1.84s-.77-1.69-2.03-1.69c-.5,0-.86.04-1.05.09v3.35Z" fill="#fff" stroke-width="0"/>
    <path d="M102.55,10.66c0,.65.03,1.29.12,1.73h-1.64l-.13-.8h-.04c-.43.56-1.19.96-2.13.96-1.45,0-2.27-1.05-2.27-2.15,0-1.81,1.61-2.74,4.28-2.73v-.12c0-.47-.19-1.26-1.47-1.26-.71,0-1.45.22-1.94.53l-.36-1.19c.53-.33,1.47-.64,2.61-.64,2.31,0,2.98,1.47,2.98,3.05v2.59ZM100.78,8.87c-1.29-.01-2.52.25-2.52,1.35,0,.71.46,1.04,1.04,1.04.74,0,1.26-.47,1.44-.99.04-.13.04-.27.04-.4v-.99Z" fill="#fff" stroke-width="0"/>
    <path d="M105.48,5.18l1.29,3.87c.15.44.31.99.42,1.39h.04c.1-.4.24-.95.39-1.41l1.13-3.85h1.94l-1.81,4.92c-.99,2.7-1.66,3.9-2.5,4.64-.73.62-1.47.86-1.91.92l-.42-1.53c.31-.07.68-.24,1.05-.5.36-.22.76-.65,1.01-1.14.07-.13.1-.24.1-.33,0-.07-.01-.18-.09-.36l-2.65-6.62h2.01Z" fill="#fff" stroke-width="0"/>
    <path d="M111.73,7.33c0-.83-.03-1.53-.06-2.15h1.56l.09,1.07h.04c.34-.56.99-1.23,2.22-1.23.95,0,1.69.53,2,1.33h.03c.25-.4.55-.7.87-.9.42-.28.87-.43,1.48-.43,1.19,0,2.4.82,2.4,3.13v4.25h-1.78v-3.99c0-1.2-.41-1.91-1.29-1.91-.62,0-1.08.44-1.27.96-.06.16-.09.4-.09.61v4.33h-1.78v-4.18c0-1.01-.4-1.72-1.24-1.72-.68,0-1.14.53-1.32,1.02-.06.19-.09.4-.09.61v4.27h-1.78v-5.07Z" fill="#fff" stroke-width="0"/>
    <path d="M125.58,9.3c.04,1.3,1.05,1.87,2.22,1.87.84,0,1.44-.13,2-.33l.27,1.24c-.62.27-1.48.46-2.52.46-2.34,0-3.72-1.44-3.72-3.65,0-2,1.21-3.88,3.53-3.88s3.11,1.93,3.11,3.51c0,.34-.03.61-.06.77h-4.83ZM128.75,8.02c.01-.67-.28-1.76-1.5-1.76-1.13,0-1.6,1.02-1.67,1.76h3.17Z" fill="#fff" stroke-width="0"/>
    <path d="M131.93,7.33c0-.83-.03-1.53-.06-2.15h1.59l.09,1.08h.04c.33-.56,1.11-1.25,2.31-1.25,1.26,0,2.56.82,2.56,3.1v4.28h-1.82v-4.07c0-1.04-.39-1.82-1.38-1.82-.73,0-1.23.52-1.42,1.07-.06.15-.09.37-.09.58v4.25h-1.82v-5.07Z" fill="#fff" stroke-width="0"/>
    <path d="M142.42,3.33v1.85h1.73v1.36h-1.73v3.19c0,.89.24,1.33.93,1.33.33,0,.5-.02.71-.07l.03,1.38c-.27.1-.76.19-1.32.19-.68,0-1.23-.22-1.57-.59-.4-.42-.58-1.08-.58-2.03v-3.39h-1.02v-1.36h1.02v-1.35l1.79-.5Z" fill="#fff" stroke-width="0"/>
    <path d="M148.67,2.54c.67-.12,1.57-.21,2.79-.21,1.33,0,2.3.28,2.93.82.59.49.98,1.27.98,2.21s-.3,1.72-.84,2.25c-.74.73-1.87,1.08-3.16,1.08-.34,0-.64-.01-.89-.07v3.78h-1.81V2.54ZM150.47,7.18c.24.07.52.09.89.09,1.36,0,2.19-.68,2.19-1.84s-.77-1.69-2.03-1.69c-.5,0-.86.04-1.05.09v3.35Z" fill="#fff" stroke-width="0"/>
    <path d="M162.16,10.66c0,.65.03,1.29.12,1.73h-1.64l-.13-.8h-.04c-.43.56-1.19.96-2.13.96-1.45,0-2.27-1.05-2.27-2.15,0-1.81,1.61-2.74,4.28-2.73v-.12c0-.47-.19-1.26-1.47-1.26-.71,0-1.45.22-1.94.53l-.36-1.19c.53-.33,1.47-.64,2.61-.64,2.31,0,2.98,1.47,2.98,3.05v2.59ZM160.38,8.87c-1.29-.01-2.52.25-2.52,1.35,0,.71.46,1.04,1.04,1.04.74,0,1.26-.47,1.44-.99.04-.13.04-.27.04-.4v-.99Z" fill="#fff" stroke-width="0"/>
    <path d="M164.08,7.51c0-.98-.01-1.69-.06-2.33h1.57l.07,1.36h.04c.36-1.01,1.2-1.53,1.99-1.53.18,0,.28.02.43.04v1.7c-.16-.03-.33-.04-.55-.04-.86,0-1.47.55-1.63,1.38-.03.16-.04.36-.04.55v3.75h-1.82v-4.89Z" fill="#fff" stroke-width="0"/>
    <path d="M171.79,3.33v1.85h1.73v1.36h-1.73v3.19c0,.89.24,1.33.93,1.33.33,0,.5-.02.71-.07l.03,1.38c-.27.1-.76.19-1.32.19-.68,0-1.23-.22-1.57-.59-.4-.42-.58-1.08-.58-2.03v-3.39h-1.02v-1.36h1.02v-1.35l1.79-.5Z" fill="#fff" stroke-width="0"/>
    <path d="M174.89,7.33c0-.83-.03-1.53-.06-2.15h1.58l.09,1.08h.04c.33-.56,1.11-1.25,2.31-1.25,1.26,0,2.56.82,2.56,3.1v4.28h-1.82v-4.07c0-1.04-.38-1.82-1.38-1.82-.73,0-1.23.52-1.42,1.07-.06.15-.09.37-.09.58v4.25h-1.82v-5.07Z" fill="#fff" stroke-width="0"/>
    <path d="M184.65,9.3c.04,1.3,1.05,1.87,2.22,1.87.84,0,1.44-.13,2-.33l.27,1.24c-.62.27-1.48.46-2.52.46-2.34,0-3.72-1.44-3.72-3.65,0-2,1.21-3.88,3.53-3.88s3.11,1.93,3.11,3.51c0,.34-.03.61-.06.77h-4.83ZM187.82,8.02c.01-.67-.28-1.76-1.5-1.76-1.13,0-1.6,1.02-1.67,1.76h3.17Z" fill="#fff" stroke-width="0"/>
    <path d="M191.01,7.51c0-.98-.01-1.69-.06-2.33h1.57l.07,1.36h.04c.36-1.01,1.2-1.53,1.99-1.53.18,0,.28.02.43.04v1.7c-.16-.03-.33-.04-.55-.04-.86,0-1.47.55-1.63,1.38-.03.16-.04.36-.04.55v3.75h-1.82v-4.89Z" fill="#fff" stroke-width="0"/>
    <path d="M196.2,10.71c.4.25,1.19.53,1.84.53.8,0,1.16-.34,1.16-.82s-.3-.73-1.19-1.05c-1.41-.47-1.99-1.25-1.99-2.1,0-1.27,1.05-2.25,2.73-2.25.8,0,1.5.19,1.93.43l-.37,1.27c-.3-.18-.89-.42-1.53-.42s-1.01.33-1.01.77.34.67,1.26,1.01c1.32.46,1.91,1.13,1.93,2.19,0,1.32-1.02,2.27-2.93,2.27-.88,0-1.66-.21-2.19-.5l.37-1.33Z" fill="#fff" stroke-width="0"/>
  </g>
</svg>